<?xml version="1.0" standalone="no"?>
<!DOCTYPE svg PUBLIC "-//W3C//DTD SVG 20010904//EN"
 "http://www.w3.org/TR/2001/REC-SVG-20010904/DTD/svg10.dtd">
<svg version="1.0" xmlns="http://www.w3.org/2000/svg"
 width="500.000000pt" height="500.000000pt" viewBox="0 0 500.000000 500.000000"
 preserveAspectRatio="xMidYMid meet">

<g transform="translate(0.000000,500.000000) scale(0.100000,-0.100000)"
fill="#000000" stroke="none">
<path d="M920 2498 l0 -1588 1585 0 1585 0 0 1585 0 1585 -1585 2 -1585 3 0
-1587z m3080 -3 l0 -1495 -1495 0 -1495 0 0 1495 0 1495 1495 0 1495 0 0
-1495z"/>
<path d="M2532 2975 c2 -15 12 -21 39 -23 21 -2 45 -12 55 -24 18 -19 19 -45
22 -359 2 -213 -1 -353 -7 -377 -11 -41 -41 -62 -86 -62 -18 0 -25 -5 -25 -20
0 -19 7 -20 170 -20 163 0 170 1 170 20 0 16 -7 20 -34 20 -19 0 -44 9 -57 19
-23 19 -24 24 -27 200 l-4 181 271 0 271 0 0 -159 c0 -208 -12 -241 -89 -241
-24 0 -31 -4 -31 -20 0 -19 7 -20 170 -20 159 0 170 1 170 19 0 14 -10 20 -41
24 -50 7 -58 14 -70 63 -12 55 -11 660 2 706 10 38 19 43 79 50 16 2 26 10 28
23 3 20 -2 21 -168 21 -166 0 -171 -1 -168 -21 2 -15 13 -21 46 -26 23 -3 48
-11 55 -18 8 -8 12 -59 12 -174 l0 -162 -265 0 -265 0 -3 135 c-2 78 1 151 8
172 11 38 20 43 80 50 16 2 26 10 28 23 3 19 -3 20 -168 20 -165 0 -171 -1
-168 -20z"/>
<path d="M1630 2975 c0 -8 11 -17 25 -20 14 -3 36 -7 50 -10 15 -3 30 -16 35
-31 6 -14 10 -176 10 -379 0 -400 2 -391 -78 -402 -32 -4 -42 -10 -42 -24 0
-18 12 -19 213 -19 245 0 313 11 417 66 86 45 151 113 193 202 30 63 32 73 32
182 0 109 -2 119 -32 183 -58 121 -165 211 -302 251 -78 23 -521 24 -521 1z
m420 -35 c241 -38 372 -248 316 -509 -26 -123 -92 -211 -196 -260 -72 -33
-244 -44 -285 -17 l-25 16 0 385 0 384 28 4 c52 8 97 7 162 -3z"/>
<path d="M2130 1752 c-5 -67 -4 -72 15 -72 13 0 16 3 8 8 -7 4 -13 36 -15 72
l-3 65 -5 -73z"/>
<path d="M2568 1750 c-2 -39 0 -70 5 -70 4 0 7 32 7 70 0 39 -2 70 -4 70 -2 0
-6 -32 -8 -70z"/>
<path d="M2669 1752 c-2 -44 0 -72 6 -72 6 0 9 22 7 52 -5 90 -8 96 -13 20z"/>
<path d="M2230 1782 c6 -12 8 -33 5 -45 -5 -17 -4 -19 4 -7 15 21 14 33 -5 56
-14 18 -15 18 -4 -4z"/>
<path d="M2368 1725 c2 -25 7 -45 11 -45 3 0 5 20 3 45 -2 25 -7 45 -11 45 -3
0 -5 -20 -3 -45z"/>
<path d="M2428 1725 c2 -25 7 -45 11 -45 3 0 5 20 3 45 -2 25 -7 45 -11 45 -3
0 -5 -20 -3 -45z"/>
<path d="M2463 1754 c-3 -8 -2 -19 3 -24 5 -5 9 1 9 16 0 28 -3 30 -12 8z"/>
<path d="M2515 1746 c0 -28 10 -26 18 4 3 11 0 20 -6 20 -7 0 -12 -11 -12 -24z"/>
<path d="M2761 1733 c-1 -23 3 -44 7 -47 4 -2 6 12 4 32 -5 56 -10 62 -11 15z"/>
<path d="M2263 1744 c-3 -8 -1 -25 4 -37 8 -18 10 -16 9 16 -1 41 -4 45 -13
21z"/>
<path d="M2335 1725 c0 -18 3 -31 8 -28 4 2 7 15 7 28 0 13 -3 26 -7 28 -5 3
-8 -10 -8 -28z"/>
<path d="M2868 1705 c-3 -14 -1 -25 3 -25 5 0 9 11 9 25 0 14 -2 25 -4 25 -2
0 -6 -11 -8 -25z"/>
<path d="M2710 1697 c0 -10 8 -17 18 -17 9 0 13 4 7 8 -5 4 -13 11 -17 16 -5
5 -8 2 -8 -7z"/>
<path d="M2470 1689 c0 -4 16 -9 35 -11 19 -2 35 -1 35 3 0 4 -16 9 -35 11
-19 2 -35 1 -35 -3z"/>
<path d="M2805 1690 c-3 -5 -1 -10 4 -10 6 0 11 5 11 10 0 6 -2 10 -4 10 -3 0
-8 -4 -11 -10z"/>
</g>
</svg>
